<svg version="1.1" xmlns="http://www.w3.org/2000/svg" xmlns:xlink="http://www.w3.org/1999/xlink" width="15.23675" height="15.93923" viewBox="0,0,15.23675,15.93923"><g transform="translate(-232.38163,-172.03039)"><g data-paper-data="{&quot;isPaintingLayer&quot;:true}" fill-rule="nonzero" stroke="none" stroke-linecap="butt" stroke-linejoin="miter" stroke-miterlimit="10" stroke-dasharray="" stroke-dashoffset="0" style="mix-blend-mode: normal"><path d="M242.70565,181.05154c0,2.95391 -2.35992,5.34853 -5.27102,5.34853c-2.9111,0 -4.96095,-1.69698 -4.96095,-4.65089c0,-1.74967 -0.48979,-4.31083 0.79028,-5.28664c0.88102,-0.67162 2.98389,-0.75953 4.17067,-0.75953c2.9111,0 5.27102,2.39462 5.27102,5.34853z" fill="#ff6f00" stroke-width="0"/><path d="M246.66853,180.86839c0,2.10054 1.61646,5.57679 0.63193,6.77246c-0.70729,0.85897 -3.84571,-0.23674 -4.8105,-0.23674c-1.46243,0 -7.67796,0.96779 -8.42457,-0.81162c-0.43156,-1.02856 3.60314,-4.08048 3.60314,-5.40267c0,-1.87893 -0.13594,-5.17981 0.67566,-6.37204c0.74755,-1.09815 3.0393,-0.48511 4.14577,-0.48511c1.31698,0 2.49165,0.20295 3.25755,1.69204c0.57619,1.12027 0.92102,3.29398 0.92102,4.84367z" fill="#ffc800" stroke-width="0"/><path d="M245.17785,179.34975c0.44722,0.2236 0.22361,0.67082 0.22361,0.67082l-0.06407,0.08874c-0.18697,0.66476 -0.13321,1.24403 -1.19871,1.14763c-0.46204,-0.04181 -0.75233,-1.53422 -0.87086,-1.08568c-0.54197,2.05094 -1.93238,0.1791 -3.15643,1.09714c0,0 -0.4,0.3 -0.7,-0.1c-0.3,-0.4 0.1,-0.7 0.1,-0.7c0.51203,-0.38402 1.14626,-1.07988 1.89513,-0.80725c0.31966,0.11637 0.26529,0.68043 0.65487,0.70726c0.39724,0.02736 0.34814,-1.05862 0.93642,-1.16c0.99318,-0.17115 1.35561,1.55525 1.35899,0.7048l0.15022,-0.33984c0,0 0.22361,-0.44721 0.67082,-0.2236z" fill="#ff6f00" stroke-width="0.5"/><path d="M239.81139,177.54696c0,-0.25121 -0.08761,-0.72488 0.06977,-0.89649c0.17628,-0.1922 0.61316,-0.0678 0.89451,-0.0678c0.19212,0 0.61602,-0.06626 0.76636,0.03057c0.2664,0.17159 0.19792,0.59328 0.19792,0.93371c0,0.26628 0.01452,0.56858 -0.15999,0.74308c-0.1745,0.1745 -0.53802,0.2212 -0.8043,0.2212c-0.53256,0 -0.96429,-0.43173 -0.96429,-0.96428z" fill="#942a26" stroke-width="0"/><path d="M243.1266,178.55206c-0.26628,0 -0.6298,-0.04671 -0.8043,-0.2212c-0.1745,-0.1745 -0.15998,-0.4768 -0.15998,-0.74308c0,-0.34044 -0.06848,-0.76211 0.19792,-0.93371c0.15034,-0.09684 0.57424,-0.03057 0.76637,-0.03057c0.28135,0 0.71824,-0.1244 0.89451,0.0678c0.15739,0.17161 0.06977,0.64527 0.06977,0.89648c0,0.53256 -0.43173,0.96429 -0.96428,0.96429z" data-paper-data="{&quot;index&quot;:null}" fill="#942a26" stroke-width="0"/><path d="M234.92785,179.57875c0,-0.04141 0.00503,-0.08164 0.01452,-0.12012c-0.10345,0 -0.20127,0 -0.28967,0c0,0 -0.5,0 -0.5,-0.5c0,-0.5 0.5,-0.5 0.5,-0.5c0.43925,0 0.87851,0 1.31776,0h0.23255c0,0 0.5,0 0.5,0.5c0,0.5 -0.5,0.5 -0.5,0.5c-0.0884,0 -0.18623,0 -0.28968,0c0.00949,0.03848 0.01452,0.07871 0.01452,0.12012c0,0.27614 -0.22386,0.5 -0.5,0.5c-0.27614,0 -0.5,-0.22386 -0.5,-0.5z" fill="#942a26" stroke-width="0.5"/><path d="M237.2107,175.66901c-0.5,0 -0.5,-0.5 -0.5,-0.5v-0.5426c0.02416,-1.18732 0.71134,-2.00717 1.74918,-2.54012c0,0 0.44721,-0.22361 0.67082,0.2236c0.2236,0.44721 -0.2236,0.67082 -0.2236,0.67082c-0.67601,0.32569 -1.22062,0.87091 -1.19639,1.6457v0.5426c0,0 0,0.5 -0.5,0.5z" fill="#2b9426" stroke-width="0.5"/><path d="M236.97815,173.11871c0.27614,0 0.5,0.22386 0.5,0.5c0,0.10628 -0.03316,0.20482 -0.08971,0.28584c0.01219,0.0597 0.01219,0.10174 0.01219,0.10174c0,0.26227 -0.00462,0.52717 -0.04775,0.78578l0.28374,0.18916c0.13785,0.08903 0.2291,0.24402 0.2291,0.42033c0,0.27614 -0.22386,0.5 -0.5,0.5h-0.5426c0,0 0,0 0,0c-0.18087,0 -0.51677,0 -0.69763,0c0,0 -0.5,0 -0.5,-0.5c0,-0.24756 0.12257,-0.37255 0.24634,-0.43565c-0.01164,-0.26597 0.07175,-0.60664 0.27154,-1.0282l-0.05279,0.06858c0,0 0,-0.42192 0.38757,-0.4906c0.00364,-0.00064 0.00731,-0.00126 0.01101,-0.00184c0.04819,-0.2258 0.24881,-0.39513 0.48899,-0.39513z" fill="#2b9426" stroke-width="0.5"/></g></g></svg>